#!OML:ASF H:\Not Pregnant\Project 1\Capture day 1\Session 1\non-pregnant.ASF
:FULLY-SPECIFIED
:DEGREES
382
root 5.47265 14.6725 33.6061 2.78034 0.59272 -9.2385
lowerback 5.36309 0.499331 6.33832
upperback -5.26597 1.35362 1.15087
thorax -8.48248 0.315088 -2.50332
lowerneck 29.405 -15.5267 -27.4951
upperneck -20.3858 -25.8756 45.0705
head 0.634418 -16.8341 21.7635
rclavicle 1.04362e-015 -3.18055e-015
rhumerus -44.3535 24.7849 -100.604
rradius 70.2775
rwrist -3.79211
rhand -8.4463 -22.3041
rfingers 7.12502
rthumb 17.4794 -51.5383
lclavicle 1.04362e-015 -3.18055e-015
lhumerus -46.7245 -3.85059 91.3532
lradius 81.7779
lwrist 18.2958
lhand -18.2992 -11.8757
lfingers 7.12502
lthumb 7.98154 17.9536
rfemur -34.0866 2.15441 34.6285
rtibia 46.5326
rfoot -11.2196 7.20781
rtoes -16.4078
lfemur -34.8712 7.80421 -8.0718
ltibia 90.1746
lfoot -15.3224 -6.37345
ltoes -36.6541
383
root 5.50176 14.7039 33.734 2.98009 0.34559 -9.45642
lowerback 5.15598 0.587582 6.51276
upperback -5.33166 1.47599 1.1746
thorax -8.41999 0.36586 -2.58682
lowerneck 29.9298 -15.7726 -27.4167
upperneck -20.6184 -26.2634 45.1588
head 0.649961 -17.0942 21.7474
rclavicle 1.39149e-015 -3.49861e-014
rhumerus -42.8178 24.5024 -100.523
rradius 70.4184
rwrist -2.6502
rhand -8.74207 -21.6379
rfingers 7.12502
rthumb 17.1947 -50.8971
lclavicle 1.39149e-015 -3.49861e-014
lhumerus -47.1609 -2.30564 90.9661
lradius 80.2345
lwrist 17.797
lhand -19.0852 -11.5425
lfingers 7.12502
lthumb 7.22295 18.3142
rfemur -33.5587 2.23476 34.7666
rtibia 46.1937
rfoot -11.4456 7.41784
rtoes -16.2758
lfemur -35.9943 6.84312 -7.85456
ltibia 89.4365
lfoot -15.3412 -5.8226
ltoes -37.033
384
root 5.53258 14.7406 33.8581 3.25858 -0.0178187 -9.57056
lowerback 4.93947 0.725258 6.59999
upperback -5.42659 1.65291 1.14632
thorax -8.37767 0.445603 -2.68238
lowerneck 30.4863 -16.0437 -27.291
upperneck -20.9205 -26.656 45.3051
head 0.650632 -17.3712 21.762
rclavicle 1.56046e-014 6.36111e-015
rhumerus -41.3861 24.1313 -100.526
rradius 70.7402
rwrist -2.05068
rhand -9.21612 -21.1291
rfingers 7.12502
rthumb 16.7384 -50.4275
lclavicle 1.56046e-014 6.36111e-015
lhumerus -47.6403 -0.96045 90.5496
lradius 78.8091
lwrist 17.6522
lhand -19.7602 -11.2579
lfingers 7.12502
lthumb 6.57128 18.6202
rfemur -33.0842 2.47051 34.7762
rtibia 45.7999
rfoot -11.6008 7.63052
rtoes -16.2027
lfemur -37.0616 5.93413 -7.70633
ltibia 88.4864
lfoot -15.3125 -5.24954
ltoes -37.387
385
root 5.56388 14.7822 33.9786 3.58755 -0.550777 -9.57884
lowerback 4.74049 0.923897 6.57476
upperback -5.536 1.90018 1.07095
thorax -8.35413 0.564096 -2.77257
lowerneck 31.0654 -16.3371 -27.1269
upperneck -21.3079 -27.0468 45.5229
head 0.636434 -17.6633 21.8173
rclavicle -3.19049e-014 -4.77083e-015
rhumerus -40.0186 23.7172 -100.61
rradius 71.1818
rwrist -1.97487
rhand -9.81305 -20.7063
rfingers 7.12502
rthumb 16.1637 -50.0524
lclavicle -3.19049e-014 -4.77083e-015
lhumerus -48.1598 0.176817 90.1099
lradius 77.5232
lwrist 17.864
lhand -20.3105 -11.058
lfingers 7.12502
lthumb 6.04003 18.8359
rfemur -32.6239 2.89387 34.6595
rtibia 45.3495
rfoot -11.7009 7.84685
rtoes -16.2218
lfemur -38.0085 5.13403 -7.61567
ltibia 87.3197
lfoot -15.2396 -4.64809
ltoes -37.7229
386
root 5.59561 14.8285 34.0961 3.92522 -1.20837 -9.51006
lowerback 4.58174 1.15713 6.46638
upperback -5.64291 2.18748 0.960839
thorax -8.3476 0.705615 -2.85747
lowerneck 31.6379 -16.6476 -26.9247
upperneck -21.7535 -27.4273 45.7965
head 0.612295 -17.9616 21.9017
rclavicle -1.49585e-014 1.51076e-014
rhumerus -38.6801 23.3087 -100.772
rradius 71.6846
rwrist -2.35636
rhand -10.4987 -20.2816
rfingers 7.12502
rthumb 15.5034 -49.6801
lclavicle -1.49585e-014 1.51076e-014
lhumerus -48.7166 1.11806 89.6489
lradius 76.3906
lwrist 18.4152
lhand -20.7481 -10.9551
lfingers 7.12502
lthumb 5.61752 18.9504
rfemur -32.1334 3.45456 34.4463
rtibia 44.8346
rfoot -11.7522 8.05764
rtoes -16.3179
lfemur -38.789 4.40387 -7.54655
ltibia 85.9411
lfoot -15.118 -4.01414
ltoes -37.9995
387
root 5.62719 14.8794 34.2112 4.2617 -1.99545 -9.36129
lowerback 4.45946 1.41947 6.25922
upperback -5.74275 2.50627 0.822489
thorax -8.35311 0.867518 -2.92056
lowerneck 32.1967 -16.9662 -26.6976
upperneck -22.252 -27.7895 46.1168
head 0.577925 -18.26 22.0145
rclavicle 3.39922e-014 1.27222e-014
rhumerus -37.3593 22.9395 -101.005
rradius 72.223
rwrist -3.0631
rhand -11.186 -19.8479
rfingers 7.12502
rthumb 14.8413 -49.2963
lclavicle 3.39922e-014 1.27222e-014
lhumerus -49.3164 1.8833 89.1723
lradius 75.4201
lwrist 19.2688
lhand -21.0786 -10.9414
lfingers 7.12502
lthumb 5.29847 18.9723
rfemur -31.6032 4.15066 34.1321
rtibia 44.2538
rfoot -11.7678 8.25868
rtoes -16.5245
lfemur -39.3955 3.74463 -7.50459
ltibia 84.3558
lfoot -14.9831 -3.37123
ltoes -38.1395
388
root 5.65814 14.9331 34.3225 4.5933 -2.84985 -9.1937
lowerback 4.38098 1.6841 6.0088
upperback -5.83408 2.82748 0.679059
thorax -8.37686 1.03282 -2.96577
lowerneck 32.7168 -17.2896 -26.4461
upperneck -22.7785 -28.1286 46.4639
head 0.536761 -18.5508 22.1414
rclavicle 9.83984e-015 3.02153e-014
rhumerus -36.0429 22.6534 -101.305
rradius 72.7757
rwrist -3.96331
rhand -11.8686 -19.4409
rfingers 7.12502
rthumb 14.1837 -48.9367
lclavicle 9.83984e-015 3.02153e-014
lhumerus -49.9532 2.49869 88.6846
lradius 74.6111
lwrist 20.373
lhand -21.3036 -10.9787
lfingers 7.12502
lthumb 5.08121 18.9404
rfemur -31.0531 4.95128 33.7823
rtibia 43.6068
rfoot -11.7166 8.4478
rtoes -16.7129
lfemur -39.8678 3.11983 -7.41624
ltibia 82.5907
lfoot -14.8172 -2.77904
ltoes -38.0086
389
root 5.68902 14.9895 34.4313 4.91234 -3.7372 -9.00836
lowerback 4.33214 1.93492 5.72489
upperback -5.91057 3.12897 0.534705
thorax -8.4062 1.19079 -2.99167
lowerneck 33.1783 -17.6132 -26.1772
upperneck -23.3124 -28.4419 46.8179
head 0.492241 -18.8274 22.2692
rclavicle -1.10325e-014 -7.15625e-015
rhumerus -34.7292 22.4749 -101.663
rradius 73.3272
rwrist -4.91927
rhand -12.5011 -19.0549
rfingers 7.12502
rthumb 13.574 -48.5924
lclavicle -1.10325e-014 -7.15625e-015
lhumerus -50.6238 2.99336 88.1913
lradius 73.9542
lwrist 21.6952
lhand -21.4305 -11.0528
lfingers 7.12502
lthumb 4.95869 18.8692
rfemur -30.4803 5.80929 33.3971
rtibia 42.9006
rfoot -11.6144 8.63486
rtoes -16.8842
lfemur -40.2072 2.48413 -7.28864
ltibia 80.6528
lfoot -14.656 -2.23415
ltoes -37.6888
390
root 5.72096 15.0482 34.5385 5.21689 -4.63142 -8.82984
lowerback 4.29732 2.16465 5.45372
upperback -5.9768 3.40422 0.395724
thorax -8.43628 1.33561 -3.01643
lowerneck 33.6091 -17.9228 -25.9103
upperneck -23.8506 -28.7252 47.1691
head 0.439933 -19.0873 22.4042
rclavicle -1.30204e-014 -5.56597e-015
rhumerus -33.4469 22.4161 -102.077
rradius 73.8735
rwrist -5.8047
rhand -13.0949 -18.6928
rfingers 7.12502
rthumb 13.0018 -48.2676
lclavicle -1.30204e-014 -5.56597e-015
lhumerus -51.3441 3.38751 87.7016
lradius 73.4388
lwrist 23.1815
lhand -21.4584 -11.1035
lfingers 7.12502
lthumb 4.93176 18.8191
rfemur -29.886 6.67493 33.0025
rtibia 42.1413
rfoot -11.4731 8.84591
rtoes -17.0305
lfemur -40.4201 1.80653 -7.10443
ltibia 78.5588
lfoot -14.5266 -1.75603
ltoes -37.2744
